<?xml version="1.0" standalone="no"?>
<!DOCTYPE svg PUBLIC "-//W3C//DTD SVG 20010904//EN"
 "http://www.w3.org/TR/2001/REC-SVG-20010904/DTD/svg10.dtd">
<svg version="1.0" xmlns="http://www.w3.org/2000/svg"
 width="700.000000pt" height="700.000000pt" viewBox="0 0 700.000000 700.000000"
 preserveAspectRatio="xMidYMid meet">
<metadata>
Created by potrace 1.14, written by Peter Selinger 2001-2017
</metadata>
<g transform="translate(0.000000,700.000000) scale(0.100000,-0.100000)"
fill="#000000" stroke="none">
<path d="M1528 6995 c-2 -2 -19 -5 -38 -8 -157 -23 -310 -136 -401 -295 -100
-175 -97 -327 11 -446 124 -135 339 -153 486 -41 20 15 48 45 63 67 14 22 37
53 51 69 24 28 26 29 48 14 87 -62 88 -291 1 -332 -14 -7 -63 -15 -108 -18
-137 -9 -185 -46 -185 -145 0 -102 42 -139 167 -146 101 -6 98 -3 82 -72 -14
-61 -67 -220 -85 -257 -13 -27 -99 -228 -177 -415 -100 -241 -169 -396 -269
-608 -24 -51 -66 -141 -93 -200 -27 -59 -70 -151 -95 -205 -25 -55 -46 -101
-46 -103 0 -2 -23 -52 -51 -111 -72 -152 -142 -325 -184 -455 -36 -112 -91
-324 -101 -388 -2 -19 -7 -48 -11 -65 -19 -94 -28 -242 -27 -430 1 -288 43
-516 141 -765 130 -332 348 -635 638 -889 65 -58 257 -200 318 -237 27 -16 63
-38 80 -48 153 -91 325 -173 507 -241 113 -43 339 -113 389 -121 14 -3 33 -7
41 -10 58 -20 372 -71 513 -82 184 -14 691 -6 749 13 7 2 39 6 71 9 31 3 67 8
80 11 12 3 36 7 52 9 17 2 48 8 70 14 22 6 56 13 75 16 62 9 228 55 367 101
187 63 484 203 656 312 248 157 492 365 639 543 233 284 398 652 458 1020 28
167 39 417 26 550 -3 25 -7 76 -11 113 -3 37 -8 76 -10 86 -2 10 -6 35 -9 54
-39 245 -118 477 -286 842 -25 54 -139 318 -245 565 -128 301 -138 325 -159
373 -8 17 -42 100 -76 182 -34 83 -68 164 -76 180 -7 17 -23 55 -34 85 -12 30
-28 69 -35 85 -7 17 -30 73 -50 125 -21 52 -41 104 -46 115 -31 75 -102 276
-98 279 2 2 31 7 64 11 95 10 135 48 140 130 7 103 -35 149 -145 160 -36 4
-79 11 -97 16 -86 27 -105 257 -26 319 40 32 58 25 91 -32 36 -63 70 -100 120
-132 128 -80 291 -66 405 34 125 109 149 310 60 498 -85 181 -275 284 -515
277 -297 -9 -564 -183 -688 -448 -59 -125 -82 -236 -82 -393 l-1 -131 -1131 0
-1132 0 -1 146 c0 100 -6 172 -18 226 -29 130 -99 262 -200 373 -86 96 -274
204 -398 231 -53 12 -211 23 -219 16z"/>
</g>
</svg>
