<?xml version="1.0" encoding="UTF-8"?>
<svg xmlns="http://www.w3.org/2000/svg" version="1.1" xmlns:xlink="http://www.w3.org/1999/xlink" viewBox="0 0 140.7 140.7">
  <defs>
    <style>
      .cls-1 {
        fill: #f9f7f3;
      }

      .cls-1, .cls-2 {
        stroke-width: 0px;
      }

      .cls-3 {
        display: none;
      }

      .cls-2 {
        fill: #191c19;
      }
    </style>
  </defs>
  <g id="Layer_1" data-name="Layer 1" class="cls-3">
    <image width="600" height="569" transform="translate(15.8 21) scale(.2)" xlink:href="../../../../../../Downloads/R.png"/>
  </g>
  <g id="Layer_2" data-name="Layer 2">
    <circle class="cls-1" cx="70.4" cy="70.4" r="70.4"/>
    <polygon class="cls-2" points="48.8 37.5 48.8 50.2 124.9 50.2 124.9 55.1 48.8 55.1 48.8 67.9 124.9 67.9 124.9 72.8 48.8 72.8 48.8 85.6 124.9 85.6 124.9 90.5 48.8 90.5 48.8 103.2 124.9 103.2 124.9 108.1 15.8 108.1 15.8 32.6 124.9 32.6 124.9 37.5 48.8 37.5"/>
    <polygon class="cls-1" points="45.1 42.7 24.5 69.4 45.1 96 45.1 102.3 19.6 69.4 45.1 36.4 45.1 42.7"/>
    <path class="cls-2" d="M77,26.7v32.5c-1.4-2.4-4.9-4-9-4s-9.7,2.9-9.7,6.4,4.4,6.4,9.7,6.4,9.7-2.9,9.7-6.4V26.7h-.7ZM67.9,66.5c-5,0-9-2.2-9-5s4-5,9-5,9,2.2,9,5-4,5-9,5Z"/>
    <path class="cls-2" d="M113.7,86.6v-34.7h-.7v33.5c-1.6-2.1-4.9-3.5-8.7-3.5-5.4,0-9.7,2.9-9.7,6.4s4.4,6.4,9.7,6.4,9.7-2.9,9.7-6.4-.1-1.2-.4-1.8ZM104.3,93.4c-5,0-9-2.2-9-5s4-5,9-5,9,2.2,9,5-4,5-9,5Z"/>
  </g>
</svg>