<?xml version="1.0" encoding="UTF-8"?>
<svg xmlns="http://www.w3.org/2000/svg" version="1.1" viewBox="0 0 83.5 99.4">
  <defs>
    <style>
      .cls-1 {
        fill: #b2b6ba;
      }

      .cls-1, .cls-2 {
        stroke-width: 0px;
      }

      .cls-3 {
        fill: none;
        stroke: #b2b6ba;
        stroke-miterlimit: 10;
        stroke-width: 1.1px;
      }

      .cls-2 {
        fill: #191c19;
      }
    </style>
  </defs>
  <g id="Layer_1" data-name="Layer 1">
    <path class="cls-2" d="M80.9,52.6s-11.2-25.2-14.1-33.6h-.1c-.7-1.6,2-.9,2.6-1.5.5-.5.5-1.6.2-2.2-.9-1.1-2.9,0-3.7-1.4-1.1-1.5-.9-4.8,1.1-5.3.5,0,1,.3,1.2.9,1.3,2.7,4.5,3.5,6.8,1.5.7-.6,1.2-1.5,1.4-2.5,1.1-12-19.9-9.8-17.8,5.9,0,.4-.4.2-1.1.3h-32c-.3,0-.3-.2-.3-.7v-3.2c-.3-9.2-13.3-14.9-17.7-5-2.1,5.4,5.1,8.4,8,3.8.7-1.7,2-1.3,2.7.3.6,1.4.4,4.2-1.2,4.6-1,.3-2.3,0-3.2.5-.5.3-.5,1.4-.3,1.9,0,1.4,3.4.3,3.6,1.4-.5,3.5-2.7,7.4-3.8,10.4-2.2,5.5-5.2,11.5-7.9,17.5C-3.2,63.6.5,77.6,9.8,86.8v.7h.7c14.5,13.5,41.6,15.9,59.7,2.3,10.5-7.6,16-21.3,10.7-37.2Z"/>
  </g>
  <g id="Layer_2" data-name="Layer 2">
    <g>
      <path class="cls-1" d="M36.7,66.3c-1.5,2.5-4,3.9-7.1,3.9-4.6,0-8.4-3.8-8.4-8.4s3.8-8.4,8.4-8.4,5.6,1.6,7.1,3.9l2.2-2.2c-2.1-3-5.4-4.8-9.4-4.8-6.3,0-11.5,5.1-11.5,11.5s5.1,11.5,11.5,11.5,7.2-1.9,9.4-4.8l-2.2-2.2Z"/>
      <polygon class="cls-1" points="65.6 50.6 44.1 50.6 44.1 53.6 53.4 53.6 53.4 73.4 56.4 73.4 56.4 53.6 65.6 53.6 65.6 50.6"/>
    </g>
    <path class="cls-3" d="M66.7,19.2c-.7-1.7,2-1,2.6-1.6.5-.5.5-1.6.2-2.2-.9-1.1-2.9,0-3.7-1.4-1.1-1.5-.9-4.8,1.1-5.3.5,0,1,.3,1.2.9,1.3,2.7,4.5,3.5,6.8,1.5.7-.6,1.2-1.5,1.4-2.5,1.1-12-19.9-9.8-17.8,5.9,0,.4-.4.2-1.1.3h-32c-.3,0-.3-.2-.3-.7v-3.2c-.3-9.2-13.3-14.9-17.7-5-2.1,5.4,5.1,8.4,8,3.8.7-1.7,2-1.3,2.7.3.6,1.4.4,4.2-1.2,4.6-1,.3-2.3,0-3.2.5-.5.3-.5,1.4-.3,1.9,0,1.4,3.4.3,3.6,1.4-.5,3.5-2.7,7.4-3.8,10.4-2.2,5.5-5.2,11.5-7.9,17.5-21.3,43.9,34.5,66.5,65,43.6,10.5-7.6,16-21.3,10.7-37.2,0,0-11.2-25.2-14.1-33.6h-.1ZM70.4,67.8c-6.6,20-36.9,21-50.8,10.3-5.3-4.8-8.2-13.2-7.1-22.6,2.2-10.5,8.4-23.5,11.2-34.2.3-1.1.5-2.5,1.1-3.4h34.2c.2,0,.2.2.4.5,1.2,3.8,4,12.3,5.8,17.3,3.8,10,8.4,21.4,5.3,32v.2Z"/>
  </g>
</svg>