<?xml version="1.0" encoding="UTF-8"?>
<svg id="Layer_2" data-name="Layer 2" xmlns="http://www.w3.org/2000/svg" version="1.1" viewBox="0 0 665.6 423.7">
  <defs>
    <style>
      .cls-1 {
        fill: #f9f7f3;
      }

      .cls-1, .cls-2 {
        stroke-width: 0px;
      }

      .cls-2 {
        fill: #191c19;
      }
    </style>
  </defs>
  <rect class="cls-2" width="665.6" height="423.7"/>
  <g>
    <path class="cls-1" d="M468.6,19.4c-146,50.7-114.2,330.5,52.5,310.1-168.9,14.1-185.2-267.4-50.9-305.3,41-10.4,53.9-3.5,66.7,1.1,4.6,1.4,9.4-.2-.5-3.4s-35.5-13.1-67.7-2.5h0Z"/>
    <path class="cls-1" d="M529.8,136.5c72.2-45.4,3.3-155.8-90-64.3,53.8-15.7,72.2,11.2,90,64.3Z"/>
    <path class="cls-1" d="M525.4,228.9c-6.5,14.5-24.3,61.3-66.5,55.3,125,105.3,178.5-112.2,155.6-138.3-20.9,57.4-58.4,82.9-89.1,83Z"/>
    <path class="cls-1" d="M411,133c6.6-23.3,25.4-75.8,71.4-61.7,30.1,12.3,10.6,14.1-8.1,11s-45.7,11.8-63.3,50.7Z"/>
    <path class="cls-1" d="M465.5,101.8c21.6,15.2,57.5,94.1,4.5,133.1,58.4-37.3,21.8-121.8-4.5-133.1h0Z"/>
    <path class="cls-1" d="M428.7,118.8c-12.4,8.9-36.7,70.2,4.4,111.9-48.2-45.2-19.6-104.4-4.4-111.9h0Z"/>
    <path class="cls-1" d="M428.3,239.8c11.4,16.3,29.8,18.4,47.1,13.7,17.3-4.6,31.5-4.7,37.5-7.8,6-3.2,3.8.7.6,5.3-41.3,56.4-99.5,13.3-114.4-45.5-2.1-8.1,2.8,1.4,3,1.9s5.9,17.7,26.2,32.4h0Z"/>
    <path class="cls-1" d="M594.7,276.1c21.9-33.3,55.8-115.5,1.5-203.6,51.5,90.2,18.3,171-1.5,203.6Z"/>
    <polygon class="cls-1" points="374.2 147.3 183.8 171.2 188.9 175.7 372 159.5 374.2 147.3"/>
    <polygon class="cls-1" points="371.8 161.4 212.5 174.9 371 164.3 371.8 161.4"/>
    <path class="cls-1" d="M234.6,206.9l62.6-21,16.3-2.5,10.1,7.2-3.7,8.3,1.2-6.9s-5.7-6.4-8.5-6-8.8,1.8-13.5,2.1c-4.6.4-1.6-1.2-4.2,1.4-2.7,2.7-54.1,18.1-54.1,18.1l-6.2-.9v.2Z"/>
    <path class="cls-1" d="M246.8,206.5l45.7-14.4s3.3.7-.4,1.5-45.3,13-45.3,13h0Z"/>
    <path class="cls-1" d="M278.4,199s15.5-5.2,16.7-5.6c1.2-.4,14.3.5,17.3,0,2.9-.5,6.6,0,6.6,0,0,0,2.4,4.5-4.9,3.9s-11-3.8-18.3-1.8-41,12.4-27.3,6.9,10-3.3,10-3.3h-.1Z"/>
    <polygon class="cls-1" points="193.4 195.2 194.4 197.9 251.1 200.6 261.4 197.2 193.4 195.2"/>
    <polygon class="cls-1" points="280.5 202.3 375.9 210.5 374.1 203.4 294.3 199.4 280.5 202.3"/>
    <path class="cls-1" d="M327.7,191.8c-5.3,0-3.2,4.6,1.8,5.3s59,3.3,40.2-5.2c-19.3-1.2-42,0-42,0Z"/>
    <g>
      <path class="cls-1" d="M132.2,176.9s-8.2,2.8-7.8,4.1c.4,1.3,12.1-2.6,12.4-2.7.3,0-7,1.2-4.6-1.4h0Z"/>
      <path class="cls-1" d="M123.2,187l.5,2.5,5.1,13.4h1.1l-5-13.2s4.7-1,8.9-2.4-3.6-1.1-2-1.7-6.5,2.5-8.7,1.4h0Z"/>
      <path class="cls-1" d="M124.2,181.7l-.9,4.5s.9,0,2.1.2c1.1,0,.7-4.4.7-4.4,0,0-1.9-.3-1.9-.3Z"/>
      <polygon class="cls-1" points="129.2 181.5 130.3 185.4 131.9 184.9 130.8 181 129.2 181.5"/>
      <polygon class="cls-1" points="134.5 179.5 136.1 184.1 135.9 179.5 134.5 179.5"/>
      <polygon class="cls-1" points="133 177.6 124.9 154 125.3 153.9 133.5 177.7 133 177.6"/>
      <polygon class="cls-1" points="134.2 177.9 125.9 153.7 127.9 153 136.5 177.3 134.2 177.9"/>
      <polygon class="cls-1" points="130.1 155.1 136.7 173.3 130.6 154.5 130.1 155.1"/>
      <ellipse class="cls-1" cx="127.1" cy="145.7" rx="10.9" ry=".7" transform="translate(-39.7 47.9) rotate(-18.5)"/>
      <polygon class="cls-1" points="120.7 155.4 118.7 155.4 117.7 154 116.7 154.3 115.9 151.7 117.1 151.3 117 149.6 117.5 151.2 121.9 150.5 122.9 152.6 118.4 153.7 119 155.1 120.7 155.4"/>
      <path class="cls-1" d="M123.5,152.3v.2h-.2l-.6-1.6v-.2h.2l.6,1.6Z"/>
      <path class="cls-1" d="M124.4,152v.2h-.2l-.6-1.6v-.2h.2l.5,1.6h0Z"/>
      <path class="cls-1" d="M125.3,151.7v.2h-.2l-.6-1.6v-.2h.2l.6,1.6Z"/>
      <path class="cls-1" d="M126.2,151.4v.2h-.2l-.6-1.6v-.2h.2l.6,1.6Z"/>
    </g>
    <g>
      <path class="cls-1" d="M146.2,175.5s-8.2,2.8-7.8,4.1,12.1-2.6,12.4-2.7c.3,0-7,1.2-4.6-1.4h0Z"/>
      <path class="cls-1" d="M137.2,185.6l.5,2.5,5.1,13.4h1.1l-5-13.2s4.7-1,8.9-2.4-3.6-1.1-2-1.7c1.6-.5-6.5,2.5-8.7,1.4h0Z"/>
      <path class="cls-1" d="M138.1,180.3l-.9,4.5s.9,0,2.1.2c1.1,0,.7-4.4.7-4.4l-1.9-.3h0Z"/>
      <polygon class="cls-1" points="143.2 180.2 144.2 184 145.8 183.5 144.8 179.7 143.2 180.2"/>
      <polygon class="cls-1" points="148.5 178.2 150 182.8 149.8 178.2 148.5 178.2"/>
      <polygon class="cls-1" points="146.9 176.3 138.8 152.6 139.2 152.5 147.4 176.3 146.9 176.3"/>
      <polygon class="cls-1" points="148.1 176.5 139.8 152.3 141.8 151.6 150.4 176 148.1 176.5"/>
      <polygon class="cls-1" points="144.1 153.8 150.6 171.9 144.5 153.2 144.1 153.8"/>
      <ellipse class="cls-1" cx="141.2" cy="144.3" rx="10.9" ry=".7" transform="translate(-38.5 52.2) rotate(-18.5)"/>
      <polygon class="cls-1" points="134.6 154 132.6 154.1 131.7 152.7 130.7 153 129.9 150.4 131.1 150 130.9 148.2 131.4 149.9 135.9 149.2 136.8 151.3 132.3 152.4 133 153.7 134.6 154"/>
      <path class="cls-1" d="M137.4,150.9v.2h-.2l-.6-1.6v-.2h.2l.6,1.6Z"/>
      <path class="cls-1" d="M138.3,150.6v.2h-.2l-.6-1.6v-.2h.2l.6,1.6Z"/>
      <path class="cls-1" d="M139.2,150.3v.2h-.2l-.6-1.6v-.2h.2l.6,1.6Z"/>
      <path class="cls-1" d="M140.2,150v.2h-.2l-.6-1.6v-.2h.2l.6,1.6Z"/>
    </g>
    <g>
      <path class="cls-1" d="M162.2,175.6s-8.8,3-8.4,4.4c.5,1.4,13-2.8,13.3-2.9s-7.5,1.3-4.9-1.4h0Z"/>
      <path class="cls-1" d="M152.5,186.3l.6,2.6,5.3,14h1.2c0,0-5.2-13.8-5.2-13.8,0,0,5-1.1,9.6-2.6s-3.9-1.2-2.2-1.7c1.7-.6-7,2.7-9.3,1.6h0Z"/>
      <path class="cls-1" d="M153.5,180.7l-1,4.8s1,0,2.2.2c1.2,0,.8-4.7.8-4.7l-2-.3Z"/>
      <polygon class="cls-1" points="158.9 180.5 160.1 184.5 161.8 184 160.6 179.9 158.9 180.5"/>
      <polygon class="cls-1" points="164.6 178.4 166.2 183.2 166.1 178.3 164.6 178.4"/>
      <polygon class="cls-1" points="163 176.3 154.5 151.6 154.9 151.4 163.5 176.4 163 176.3"/>
      <polygon class="cls-1" points="164.3 176.6 155.5 151.2 157.7 150.5 166.7 176 164.3 176.6"/>
      <polygon class="cls-1" points="160.1 152.7 167 171.8 160.6 152.1 160.1 152.7"/>
      <ellipse class="cls-1" cx="157.1" cy="142.8" rx="11.7" ry=".8" transform="translate(-37.2 57.2) rotate(-18.5)"/>
      <polygon class="cls-1" points="150 153.1 147.8 153.1 146.8 151.6 145.8 152 144.9 149.3 146.2 148.8 146 147 146.6 148.7 151.4 148 152.3 150.1 147.5 151.4 148.2 152.7 150 153.1"/>
      <path class="cls-1" d="M153,149.8v.2h-.2l-.6-1.7v-.2h.2l.6,1.7Z"/>
      <path class="cls-1" d="M154,149.5v.2h-.2l-.6-1.7v-.2h.2l.6,1.7Z"/>
      <path class="cls-1" d="M155,149.1v.2h-.2l-.6-1.7v-.2h.2l.6,1.7Z"/>
      <path class="cls-1" d="M155.9,148.8v.2h-.2l-.6-1.7v-.2h.2l.6,1.7Z"/>
    </g>
    <polygon class="cls-1" points="122 187.7 73.5 200.7 83.2 201.3 123.6 190.7 122 187.7"/>
    <path class="cls-1" d="M110.5,189.5c2.9-3.9,5.5-8.3,18-12.2-5.2,2.9-5.7,4-6.9,6.7-1.1,2.7-5,4.6-11.1,5.5Z"/>
    <path class="cls-1" d="M71.4,201.1l169.4,6.7-2.2,1.9-69.1-3.7s-4.8,2.7-5.6,10.3c-.3-5.6,2-8,2.7-9.1s-100.1-4.7-100.1-4.7c0,0-1.9-1.5,4.9-1.4Z"/>
    <path class="cls-1" d="M70.9,203.5c10,.4,91.4,4.4,91.4,4.4,3.2.3,2.1,2.7-.5,2.7s-88-5.5-90.4-5.6-4.2-1.6-.4-1.5h0Z"/>
    <path class="cls-1" d="M237.5,234.6c-8-7.1-9.3-19,2.8-26,3.5,0,15-.3,15-.3,0,0,3.9.2,5.5,2.3-6.7-4.2-13.7,1.3-15.6,3.7s-4.8,8.7-1.6,14.7c-4.4-7.1-1-13.5.2-14.5,1.1-1-6.6-3.7-8.5-.7s-6.4,11,2.2,20.8h0Z"/>
    <path class="cls-1" d="M169.3,210.7c5.5.7,59,2.7,59,2.7,6.7.7,8.2-2.8.7-3.2s-53.6-3-55.7-3.2c-4.5-.3-8.1,3-4.1,3.7h.1Z"/>
    <path class="cls-1" d="M70.2,215.5l181.1,22.6s-6.5-1.6-9.4-8.2c-2.9-6.6-8.6-2.4-7.5-.6s3.6,5.4,4.3,5.6-.9.5-2.1-.4c-1.2-.9-3.6-4.1-3.9-5.1-.3-1-67.5-5.9-67.5-5.9,0,0-.6-1.1-1.3-3.3s.6,3.8,1.2,4.2c.6.5-102.1-11.9-102.1-11.9,0,0,2.6,2.6,7.2,3h0Z"/>
    <path class="cls-1" d="M262.6,211.4c49.2,19.8,77.7,111.8,73.9,131.6,0-17.1-8.4-38.5-14.1-52-8.4-19.8-31.5-58.7-28.5-47.9s20.4,43.3-7.8,3.2c-19.3-27.6-35.8-27.6-39.2-27-3.4.5,2.7-12.8,15.6-7.8h.1Z"/>
    <path class="cls-1" d="M254.2,237.7c27.5,13.8,57,84.2,55.4,100.7,4-16.3-13.8-51.7-18.4-61.9-4.6-10.3,5.5,5.8,9.6,9.2s1.1-3.1-14.5-23.3-25.2-29.3-36.9-36.1-4.2,8.7,4.8,11.4h0Z"/>
    <path class="cls-1" d="M307.6,332.3c-10.6,4-10.9,24.4,5.1,25.8-16.3.2-16.8-22.3-5.1-25.8Z"/>
    <path class="cls-1" d="M192.6,304.2c-12.5,4.2-10.3,20.3-3.1,22.6,7.3,2.3,119.4,31.6,119.4,31.6,0,0-11.1-2.7-10.8-13.4-.3,1.5-.2,3.4,0,3.9-.6-3.2-7.9-5.2-7.9-2.8s-1-4.8-.6-5.7c-.9,2.5.5,8.1,1.8,10.3-1.4-2-2.3-4.1-2.4-5.5-.2-1.4-99.2-24-99.2-24,0,0,0,1.9,1.7,4.4-2.2-2.1-2.2-4.4-2.4-5-.3-2.8-3.7-2.8-3.6-1.1.1,1.7-3.9-11.1,7.2-15.2h0Z"/>
    <polygon class="cls-1" points="198.6 305.9 290.8 325.9 291.8 328 196.9 306.3 198.6 305.9"/>
    <path class="cls-1" d="M293.1,331c-2.3,2.3-3.8,6.4-3.6,7.2-.2,3.4,4.4,5.2,8.7,1.5,2.3-2.5.6-4.8-.9-1.3s-7.3,3.3-7.4-.4c.7-3.3,3.2-7,3.2-7h0Z"/>
    <path class="cls-1" d="M287.5,317.9s6,12.6,6.8,14.7c.8,2.1,3.9-.4,5.8-2.1-1-2.9-6.1-13.9-6.1-13.9,0,0-3.6,2.5-6.5,1.3h0Z"/>
    <path class="cls-1" d="M288.2,315c-2.2.5-1.9,2.2-.6,2.4,3.7,1.1,8.3-2.2,9-2.9-3.5,2.4-7.2,3.3-7.9,2.4-.7-.9-.5-1.3.2-1.6s-.7-.3-.7-.3h0Z"/>
    <path class="cls-1" d="M289.9,315.2c-.7.2-1.5,1.4,0,.9s1.7-1.3,0-.9Z"/>
    <polygon class="cls-1" points="295.3 316 301.5 329.3 301.9 329.1 296.3 315.5 295.3 316"/>
    <path class="cls-1" d="M304.9,327.5l-5.4-14.4s-.3-.8-1.6-.8c-1-2.6-2.4-2-2.8-1.9.5,0,1.8-.4,2.7,1.9.7.2,1.2,1.2,1.4,1.7s5.4,13.6,5.4,13.6l.3-.2h0Z"/>
    <polygon class="cls-1" points="250.3 238.8 258.2 255 260.9 254.2 254.1 239.3 250.3 238.8"/>
    <polygon class="cls-1" points="255.6 240.6 262 253.7 262.7 253.4 256.7 240.3 255.6 240.6"/>
    <path class="cls-1" d="M258.6,255.1c-1.2.4-.6,2.8,2.1,1.7,1.9-.7,3.1-1,5.3-2.1,2.2-1.1-7.8,2.5-6,1.3s0-1.5-1.4-1h0Z"/>
    <path class="cls-1" d="M261.1,257.1l27,57.4s2.6-.2,4.1-.9c-7.8-16-27.9-57.5-27.9-57.5,0,0-1.7.8-3.2,1.1h0Z"/>
    <polygon class="cls-1" points="265.7 256.8 290.4 307.5 266.4 256.2 265.7 256.8"/>
    <polygon class="cls-1" points="268.2 253.6 295.4 311.2 295.3 311.7 267.9 253.7 268.2 253.6"/>
    <path class="cls-1" d="M217.1,234.4c-12,4.6,2.3,37.6,15.2,39.2-12.3-2.4-21.6-29.4-17.5-34.6,2.4-3.2,6.6.2,7.5.8s-3.1-4.5-7-2.5c-4,2,6.2-4.5,1.8-2.9Z"/>
    <path class="cls-1" d="M216.1,239c-4.8,15.3,13.1,29.7,16.9,32,1.7.3,3.1-.8,0-3.3s-13.5-13.2-14.4-25.9c-.5-6.2-2.5-2.7-2.5-2.7h0Z"/>
    <path class="cls-1" d="M226.2,235.4c11.3,8.6,17.7,24.4,14.7,32.7-1.1,1.3-4.4,2.1-4.4,2.1,0,0,3.3-1.3,3.8-2.6,2.8-16.2-10.9-28-14.8-31.6-2.2-1.9.7-.7.7-.7h0Z"/>
    <path class="cls-1" d="M221.4,236.3c12.2,8.7,16,23.9,16.4,29.3.6-5.5-5-22.9-16.4-29.3Z"/>
    <path class="cls-1" d="M170.1,144.1l.2,1.3-7.1,3.2,8.3,24.7s3.6-.5-.7,1.1c-3.8-12.4-8.4-25.8-8.4-25.8l7.7-3.4v-1.1Z"/>
    <path class="cls-1" d="M169.2,140.8c-2.6,1.5-17.5,7-21.9,7.6,4.4-.4,19.5-6,21.9-7.6h0Z"/>
    <polygon class="cls-1" points="149.6 154.6 156 173.7 155.6 173.8 149.2 154.5 149.6 154.6"/>
    <path class="cls-1" d="M224.5,274.1s-10,1-11.4,1.2-9.4,6.4-6.3,15.4c3,9,5.7,10.8,9,10.9,3.3,0,13.8-.2,13.8-.2,0,0-7.7.8-10.3-4.2s-7.6-1.6-6.5,0c-.3,3.4-3.6-3.8-4.5-6.5s-.2-11.2,4-12.8c4.2-1.7,9.4-2.8,7.2.3s-4.3,7.4-2.9,13.4c-.5-6.6,2.1-13.1,8-17.5h-.1Z"/>
    <path class="cls-1" d="M230.9,275.5l25.3,2.4s2.5,3.9,0,3.5c-2.5-.3-32.6-3.8-32.6-3.8,0,0,3.3-2.6,7.3-2.1h0Z"/>
    <path class="cls-1" d="M218.9,284.5c-.9,1.8-1.1,3.6-.4,5.8.7,2.1,61.4,11,61.4,11l-55.6-10.3s-.7-.7,1.7-.3c2.3.3,23.9,3.9,26.2,4.3,2.3.3,3.4-4.3-.3-5-3.8-.7-32-3.7-32-3.7,0,0-1.2-.5-1-1.7h0Z"/>
    <path class="cls-1" d="M220.5,281.4l28.6,3.3c1.9.3,2.3-.3,0-.7-2.3-.3-28.6-2.6-28.6-2.6Z"/>
    <path class="cls-1" d="M269.9,298l-12.9-2.3s-2.5-7.4.9-13.1c-2.1-6.4-3.9-10.9-3.9-10.9l2.7-2.5-1.7,2.1,10.6,1.1-10.8-.8v.6l12,1.7,3.9,9.5-12.4-.9s-2.4,3.8-.9,9.2c1.6.7,9.5,1.9,9.5,1.9,0,0-8-.9-8.9-.7-1,.2,0,1.9,1.4,2.5,1.5.5,10.6,2.6,10.6,2.6h-.1Z"/>
    <path class="cls-1" d="M271,284.1c-1.7,1.5-3.6,6.4-1.6,10.1-1.7-3.8.3-8.8,1.6-10.1Z"/>
    <path class="cls-1" d="M264,267c-3.1,1.2-6.9,2.3-9.7,1.9-1.2-2.1-1.7-3.4-1.7-3.4-.6-1.7,2.1-4.7,6.4-6.1,4.2-1.4,1.6,1.2-.6,1.7-2.2.4-7.9,5-2.1,3.5s.8.6.1.8-2.6,2.8,6,.3c4.5-.3,1.6,1.2,1.6,1.2h0Z"/>
    <path class="cls-1" d="M258.1,261.6c-1.8.7-5,3.2-1.9,2.6,3.1-.6,4.6-3.6,1.9-2.6Z"/>
    <polygon class="cls-1" points="233.6 274.8 236.4 271.2 254.3 273.7 255.6 277.1 233.6 274.8"/>
    <polygon class="cls-1" points="241.3 268 255.1 269.7 254.9 270.1 241.1 268.2 241.3 268"/>
    <polygon class="cls-1" points="166.3 227.7 172.7 244.2 173.7 244.1 167.3 226.8 166.3 227.7"/>
    <path class="cls-1" d="M173.9,249.1l18.6,54.6s12.2-1.9,12.7-12.2.1-1.2-1.6.2c-1.7,1.5-8.7,6.5-10.4,1.5s-17.9-44.1-17.9-44.1h-1.5,0Z"/>
    <path class="cls-1" d="M194.1,291.1c1,4.3,9.9,2.4,8.8-2.7s-13.5-40.2-13.5-40.2c0,0,3.8,14.7,4.9,19.4,4.8,23.6,2.4,18.9-4.1.9s-9.2-17.5-9.2-17.5l13,40.1h.1Z"/>
    <path class="cls-1" d="M199,242.5c-10,4-20.7,7.6-25.6,6.1-2.8-1.1-2.9-4.1-1.3-4.4,1.7-.3,5.1,0,18.4-3.9,13.3-4-1,3-12.7,4.5-5.3.7-3.3,3.3.4,2.5s12.7-1.8,20.8-4.7h0Z"/>
    <path class="cls-1" d="M176.3,242.8c-.9-2.1.3-8.3-2.1-11.5s9.9-.2,13.5,0,2.9,8.1,3.1,8c.2,0-14.5,3.5-14.5,3.5Z"/>
    <polygon class="cls-1" points="150 224.7 156.9 242.4 158.1 242.6 151.3 224.8 150 224.7"/>
    <polygon class="cls-1" points="154.3 226.8 160.6 242.1 166.3 241.4 160.9 226.3 153.7 225.2 154.3 226.8"/>
    <polygon class="cls-1" points="158.8 247.4 169.8 280 171.5 280.9 160 247.3 158.8 247.4"/>
    <path class="cls-1" d="M163.4,247.9l12.7,35.2s7.2,5.6,4.1,15c1.3,5.3,3.6,10.7,3.6,10.7,0,0,3-4.1,7-5.5-2.9-8.8-8.9-28-8.9-28,0,0-5.6-7.4-1.7,6.8,3.9,14.2-2.8-.4-3.6-2.8-.8-2.4-13.2-31.4-13.2-31.4h0Z"/>
    <path class="cls-1" d="M163.1,242.2c-4.2.7-4.6.9-6.2.5-1.7-.3-1.8,5.2,2.4,4.5s8-1.1,8.8-1.4c.8-.3,4-2.7-2.7-1.3s-9.8.4-7.9-.5c1.9-.9,5.6-1.9,5.6-1.9h0Z"/>
    <path class="cls-1" d="M149.4,240.2c-4.2.7-4.6.9-6.2.5-1.7-.3-1.8,5.2,2.4,4.5s8-1.1,8.8-1.4,4-2.7-2.7-1.3c-6.6,1.3-9.8.4-7.9-.5s5.6-1.9,5.6-1.9h0Z"/>
    <polygon class="cls-1" points="136.1 222.4 143.2 241.1 144.9 240.9 138.2 223.5 136.1 222.4"/>
    <polygon class="cls-1" points="144.5 245.7 157.5 282.7 158.5 282.3 145.6 245.6 144.5 245.7"/>
    <path class="cls-1" d="M166.7,279.6c-2.4,0-5.3.9-6.5,1-1.2,0-7.9-21-8.8-25.4s2.5-10.3,6.4.5,3.5,14.8,5.8,19,5.8,4.9,3.1,4.9Z"/>
    <path class="cls-1" d="M104.2,218.4c-3.2,11.7.6,48.1,9.1,64.2,1.5-.6.9-2.4,1-2.7-10.6-23.6-10-55.1-8.3-60.5-.6-1.7-1.8-1-1.8-1Z"/>
    <path class="cls-1" d="M128.4,270.5c-9.3.6-18.6,5.3-16.7,30.8.8,11.9,10.8,17.6,11.2,17.5-2.2-6.5-2.1-13.4,0-16.7.4-1.6-2.8-3.2-4.2-1.2s-4.9,8.4-5,1.7-1.7-18.3,3.6-21.9c1,3.8.5,5.1,4.3,5.9,3.8.8,10.8,2.3,10.8,2.3,0,0,9.6-2.3-2.3-5.1-11.9-2.8-8.9-3.5-4.4-3.5s11.6-10.3,2.8-9.7h0Z"/>
    <path class="cls-1" d="M114.7,288.9c-.5,2.7-.9,6,.5,8.7,1.3,2.7,1.9-1.7,1.9-4.4s-1.5-8.6-2.3-4.3h0Z"/>
    <path class="cls-1" d="M107.2,224.6c-1.2,8.7-.8,22.4,5.3,37.8s2.5,1.2,1.4-2-4.7-18.5-4.6-25.9c.2-7.4-.6-16.9-2.1-9.9h0Z"/>
    <path class="cls-1" d="M121.8,224.1c-2.1,8.7,1.8,36.3,5.5,45.4-4.4-9.5-8.5-36.7-5.5-45.4Z"/>
    <path class="cls-1" d="M165,280.9c-5.9,1.6-16,4.1-16.8,4.3-.9-1-7.7,1.3-7.5,2.3-9.1,2.4-25.3,12.2-16.5,35.2s30.9,14.4,30.9,14.4c0,0-2,0-4.5-7.3-4.9,1.3-14.5,1.6-17.4-6-2.8-7.6-8.1,3-9.4-3.3s-6.3-23.2,16.2-31.9c-2.5,3.4,0,9.2.1,10.5-1.4-7.5-1.1-8.5.5-11-.7.8-.8,3.8-.5,5s5.5-6,6.3-1.5c-.2-4.2.5-5,.6-5.4-.4,1.6-.4,1.9,0,3.2-.2,1.1,0-1.9.4-2.7.4-.7,11.9-3,14.8-2.3,2.9.7,14.2-.7,15.2,5.1s3.6,3.4,2.2-.5c-1.3-4-7.1-10.3-14.8-8h.2Z"/>
    <polygon class="cls-1" points="149.3 282.5 129.8 279.8 131.5 277.8 149.8 280.5 149.3 282.5"/>
    <polygon class="cls-1" points="132.7 270.6 154.2 274 154.7 275.6 134.2 272.5 132.7 270.6"/>
    <path class="cls-1" d="M170.4,301.1c-6.2,1.6-14.8,3.5-18,4.5s-5.2,1.8-7.3,1.4c-8.2,1.9-6.6,13.5-.7,11.8-8.5,3.7-9.7-11.1-.3-12.7,2.6-.2,5.5-1.2,6.5-2.5,1-1.4,15.5-3.7,15.5-3.7,0,0,8.7,0,4.3,1.3h0Z"/>
    <path class="cls-1" d="M151,317.3s1.5-1.4,6.6-2,16.3-4.3,16.3-4.3l-1.5,1.5-14.7,3.7s-1.2,1.2-.2,6.1c-1.1-5.5-6.6-5.7-6.7-1.1-.4-2.2,0-3.4.2-3.9h0Z"/>
    <path class="cls-1" d="M151.1,324.2c1.5,10.1,5.5,12.3,5.5,12.3,0,0,.5,1-.1.6-4.3-2.9-5.5-11-5.8-13.1,0,0,.2-2,.5.2h0Z"/>
    <path class="cls-1" d="M153.6,328.8l30.7-8.3,5.4,5.5s.9,1.9-7.6,4.5c-8.4,2.6-23.8,6.2-23.8,6.2,0,0-4-2.6-4.7-8h0Z"/>
    <path class="cls-1" d="M136.4,297.6c-4.6,1.5-11.9,4.9-11.6,20.3-2.3-8.8-3-17.6,13.2-23.3,0,0,1.9,1.8-1.7,3h0Z"/>
    <path class="cls-1" d="M174.1,331.4l9.3,27.9s-1.2,3.5,2.3,4.1,7.3.7,10.3-.3c-5.8-.3-11.6-.3-9.9-1.8,1.6,0,5.6-.5,9.2-2.1-3.4,1.3-4.6,1.2-7,1.5-2.4.2-3.8-4.3-1.4-5,2.4-.7-.9-.4-2.5-.4s-8.9-24.1-8.9-24.1l-1.5.3h0Z"/>
    <polygon class="cls-1" points="178.4 332.9 185.7 354.6 187.7 354.6 180.2 332.3 178.4 332.9"/>
    <path class="cls-1" d="M202,330.1l13.1,40.5s-.8,4.6,2.7,5.2c3.5.6,12.9-2.6,15.9-3.6-5.8-.3-17.6,1.9-15.9.4,1.6,0,11.6-2.6,15.2-4.3-3.4,1.3-10.6,3.4-13,3.6-2.4.2-3.8-4.3-1.4-5,2.4-.7-.9-.4-2.5-.4s-12.6-36.8-12.6-36.8l-1.5.3h0Z"/>
    <polygon class="cls-1" points="206.3 331.5 217.3 365.9 219.3 365.8 208.1 330.9 206.3 331.5"/>
    <path class="cls-1" d="M185.7,326.3l13,38.8s-1.2,3.5,2.3,4.1,7.3.7,10.3-.3c-5.8-.3-11.6-.3-9.9-1.8,1.6,0,5.6-.5,9.2-2.1-3.4,1.3-4.6,1.2-7,1.5-2.4.2-3.8-4.3-1.4-5,2.4-.7-.9-.4-2.5-.4s-12.5-35.1-12.5-35.1l-1.5.3h0Z"/>
    <polygon class="cls-1" points="189.1 325.4 200.9 360.4 202.9 360.4 191.8 327.2 189.1 325.4"/>
    <path class="cls-1" d="M237.1,338.1s6,15.1,6.7,18.1c-1.1,1.2-9.2,5.1-3.6,3.3,5.6-1.9-3.6,7.7,1.4,4.2s4.2-5,4.2-5l-6.9-19.8-1.8-.9h0Z"/>
    <path class="cls-1" d="M245.4,366c4.2-3.2,1.9-4.8,1.1-7.3-.7-.8-1.7.3-1.7.3,0,0,3.2,1.7,2.4,3.9-.9,2.2-1.8,3.1-1.8,3.1Z"/>
    <path class="cls-1" d="M67,200.5c-5.1,1.7-12.4,8-3.5,15.9-2.7-.9-7.8-7.4-3.6-12.7-.3-.8-12-3.1-15,0-3.1,3.1-.2,12.7,6.8,13.4-12.7-1-7.5-10.2-11.4-10.3-3.9-.2-.6,7.9-5.7,5.1-7.5-9.9,2.9-12.5,3.2-12.6s2.7.3,7.2-.6c6.9-3.2,9.1-.2,9.1-.2l13.5.8s1.9.4-.5,1.2h-.1Z"/>
    <path class="cls-1" d="M58.7,204.3l-11.6-1s-2.8.9-1.8,3.9c5.3.7,11.8,0,11.8,0,0,0,.5-1.9,1.7-3h0Z"/>
    <path class="cls-1" d="M43.5,197.4c-1.8-3.8-9.3-13.7-22.9-8.3-13.5,5.4-11.7,18.1-9.3,24.4,2.4,6.3,8.4,11.9,24.3,7.2-12.2,2.3-19.8.7-22.9-7.7-3-9.9.9-19.5,8.7-22.4,7.9-2.9,16.3-2.5,22.1,6.8Z"/>
    <path class="cls-1" d="M31.5,197c-5.4-1-15.3,0-11.1,14.4,1.5,5.4-3.8-2.6-3.8-4.3-2.8-5.6,3.4-17.1,14.9-10h0Z"/>
    <path class="cls-1" d="M13.3,206.9c.4,5.5,2.4,9.8,9.3,12.8-5.7-3.7-8.5-7.8-9.3-12.8Z"/>
    <path class="cls-1" d="M42.6,198.3c1,2.1-3.6-.3-5.2.3-1.6.5-4.7-6.1-14.5-4.6-9.8,1.5,12.6-9.8,19.7,4.3Z"/>
    <path class="cls-1" d="M21.5,215.4c2.2,1.3,9,6.4,18.4-.6-6.6-1.3-8.9-1.8-8.9-1.8,0,0-2.7-.9-3.4-3.9-.7-3-.4,4-1.8,4.4s-4.6,1.7-4.6,1.7c0,0-2-1.3.2,0v.2Z"/>
    <path class="cls-1" d="M239.6,358.5c-4.6,3-13.2,5.6-18.6,6.2-4.5-12.7-9.1-29.7-9.1-29.7-.8-2.4,4.5-.6,10.4,4.5s14,9.2,15.2,13.8,2,5.2,2,5.2h.1Z"/>
    <path class="cls-1" d="M197.1,333c.4,1.2,7.1,21.1,7.5,23.6s-.5,3.7,1.6,3.4,5.2-1.7,5.2-1.7l-2.9-10.1s-2.4.8-4.8-3.7c-2.4-4.5-1.6-8.8-4-11.9s-3.1-1.2-2.5.4h-.1Z"/>
    <path class="cls-1" d="M308,298.8c8.3,24.7,16.8,44.9-5.8,48.9,24.2-1.9,16.7-24.2,5.8-48.9Z"/>
    <path class="cls-1" d="M289.1,329.6l-97-22.4s-2.2.3-1.1,1.7,97.3,24.2,97.3,24.2l.8-3.5h0Z"/>
    <path class="cls-1" d="M63.5,207.1l37.9,2.1s3.2,1.4-1.1,1.7c-4.3.3-36.6-3.4-36.6-3.4,0,0-.9-.2-.2-.3h0Z"/>
    <path class="cls-1" d="M181.6,170.4l5.1,4.7,9.5,30.3-4.2-.6-8.4-27.7s-2.2,1.4-5.3,2.7,4.6-6.8-1.3-5.8c3.1-.8,5.2-2.2,4.6-3.5h0Z"/>
    <path class="cls-1" d="M156.3,190.7l4,11.1,1.2.2s-2.6-10.4-3.3-11.6c-.7-1.2-2.1-1.1-1.9.4h0Z"/>
    <path class="cls-1" d="M189.8,204.5l-12.2-.3s-3.6-9.7-3.9-10.8c-.4-1.1,9-6.6,11.1-2.2,2,4.3,5.1,13.4,5.1,13.4h-.1Z"/>
    <path class="cls-1" d="M141.4,189.5l5.1,13.4,7.7,1-5.2-12.1s-8.8-5-7.5-2.2h-.1Z"/>
    <path class="cls-1" d="M163.9,286.9c-7.6.9-9.8.6-12.1,2.6s-4.9,6.4.5,7.5,11.9-6.7,15.2-4.8,4.7-6.3-3.5-5.3h0Z"/>
    <path class="cls-1" d="M131.2,302.7c-1.3,2.2-3.7,8.3.9,16.8s-4.7-8.9,0-16.3c1.4-1.5.4-2.6-.8-.5h0Z"/>
  </g>
</svg>